# xmcd
#
# Track frame offsets:
# 150
# 14754
# 30394
# 41441
# 56283
# 69518
# 87998
# 104945
# 123766
# 137171
# 150611
# 167992
# 180857
# 194813
#
# Disc length: 2808 seconds
#
#
# Revision: 0
# Processed by: cddbd v1.5.1PL0 Copyright (c) Steve Scherf et al.
# Submitted via: FreeRIP 2.942 
#
DISCID=be0af60e
DTITLE=Saudades do Sertão 2 - CD4 - Saudades do Sertão
DYEAR=2005
DGENRE=Sertanejo
TTITLE0=Pena Branca and Xavantinho - Cuitelinho
TTITLE1=Lourenço and Lourival - Terra Molhada
TTITLE2=Trio Parada Dura - Casa de Esquina
TTITLE3=Zé do Rancho and Mariazinha - Resposta da Mariquinha (Abre a Porta, Mariquinha)
TTITLE4=Gino and Geno - No Colo da Solidão
TTITLE5=Rolando Boldrin - Vide, Vida Marvada
TTITLE6=Chitãozinho and Xororó - Obras de Poeta
TTITLE7=Felipe and Falcão - Herói Sem Medalha
TTITLE8=Irmãos Zanetti - Chinoca no Vanerão
TTITLE9=João Mulato and Douradinho - Telefonema
TTITLE10=Valderi and Mizael - Meu Primeiro Amor
TTITLE11=Peão Carreiro and Zé Paulo - Amor Vadio
TTITLE12=As Galvão - Ciriema
TTITLE13=Zé Bettio - Saudades de Matão
EXTD=Postado por rodmorlei
EXTT0=
EXTT1=
EXTT2=
EXTT3=
EXTT4=
EXTT5=
EXTT6=
EXTT7=
EXTT8=
EXTT9=
EXTT10=
EXTT11=
EXTT12=
EXTT13=
PLAYORDER=
